<svg width="185" height="32" viewBox="0 0 185 32" fill="none" xmlns="http://www.w3.org/2000/svg">
<path d="M23.112 25V7.48H27.816C28.952 7.48 29.936 7.704 30.768 8.152C31.616 8.584 32.272 9.2 32.736 10C33.2 10.784 33.432 11.712 33.432 12.784V19.672C33.432 20.744 33.2 21.68 32.736 22.48C32.272 23.28 31.616 23.904 30.768 24.352C29.936 24.784 28.952 25 27.816 25H23.112ZM25.488 22.888H27.816C28.824 22.888 29.616 22.6 30.192 22.024C30.768 21.448 31.056 20.664 31.056 19.672V12.784C31.056 11.792 30.768 11.016 30.192 10.456C29.616 9.88 28.824 9.592 27.816 9.592H25.488V22.888ZM42.5906 25.24C41.0066 25.24 39.7266 24.768 38.7506 23.824C37.7906 22.88 37.3106 21.592 37.3106 19.96V16.84C37.3106 15.208 37.7906 13.92 38.7506 12.976C39.7266 12.032 41.0066 11.56 42.5906 11.56C43.6466 11.56 44.5666 11.776 45.3506 12.208C46.1506 12.624 46.7666 13.216 47.1986 13.984C47.6466 14.736 47.8706 15.616 47.8706 16.624V19H39.6386V20.152C39.6386 21.112 39.9026 21.864 40.4306 22.408C40.9586 22.952 41.6786 23.224 42.5906 23.224C43.3586 23.224 43.9906 23.08 44.4866 22.792C44.9826 22.504 45.2786 22.104 45.3746 21.592H47.7506C47.5906 22.712 47.0386 23.6 46.0946 24.256C45.1506 24.912 43.9826 25.24 42.5906 25.24ZM39.6386 16.624V17.248H45.5426V16.624C45.5426 15.616 45.2866 14.84 44.7746 14.296C44.2626 13.752 43.5346 13.48 42.5906 13.48C41.6466 13.48 40.9186 13.752 40.4066 14.296C39.8946 14.84 39.6386 15.616 39.6386 16.624ZM55.4453 25L50.9813 11.8H53.5013L56.3093 20.464C56.4693 20.976 56.6133 21.48 56.7413 21.976C56.8693 22.456 56.9653 22.84 57.0293 23.128C57.0933 22.84 57.1813 22.456 57.2933 21.976C57.4053 21.48 57.5413 20.976 57.7013 20.464L60.4853 11.8H63.0052L58.5173 25H55.4453ZM72.6919 25C71.5559 25 70.6519 24.672 69.9799 24.016C69.3239 23.36 68.9959 22.488 68.9959 21.4V13.96H65.2279V11.8H68.9959V8.08H71.3719V11.8H76.7239V13.96H71.3719V21.376C71.3719 21.808 71.4919 22.16 71.7319 22.432C71.9879 22.704 72.3239 22.84 72.7399 22.84H76.6039V25H72.6919ZM85.7625 25.192C84.1465 25.192 82.8585 24.728 81.8985 23.8C80.9545 22.872 80.4825 21.576 80.4825 19.912V16.888C80.4825 15.224 80.9545 13.928 81.8985 13C82.8585 12.072 84.1465 11.608 85.7625 11.608C87.3785 11.608 88.6585 12.072 89.6025 13C90.5625 13.928 91.0425 15.224 91.0425 16.888V19.912C91.0425 21.576 90.5625 22.872 89.6025 23.8C88.6585 24.728 87.3785 25.192 85.7625 25.192ZM85.7625 23.104C86.6585 23.104 87.3625 22.856 87.8745 22.36C88.4025 21.848 88.6665 21.104 88.6665 20.128V16.672C88.6665 15.696 88.4025 14.96 87.8745 14.464C87.3625 13.952 86.6585 13.696 85.7625 13.696C84.8665 13.696 84.1545 13.952 83.6265 14.464C83.1145 14.96 82.8585 15.696 82.8585 16.672V20.128C82.8585 21.104 83.1145 21.848 83.6265 22.36C84.1545 22.856 84.8665 23.104 85.7625 23.104ZM100.153 25.192C98.5371 25.192 97.2491 24.728 96.2891 23.8C95.3451 22.872 94.8731 21.576 94.8731 19.912V16.888C94.8731 15.224 95.3451 13.928 96.2891 13C97.2491 12.072 98.5371 11.608 100.153 11.608C101.769 11.608 103.049 12.072 103.993 13C104.953 13.928 105.433 15.224 105.433 16.888V19.912C105.433 21.576 104.953 22.872 103.993 23.8C103.049 24.728 101.769 25.192 100.153 25.192ZM100.153 23.104C101.049 23.104 101.753 22.856 102.265 22.36C102.793 21.848 103.057 21.104 103.057 20.128V16.672C103.057 15.696 102.793 14.96 102.265 14.464C101.753 13.952 101.049 13.696 100.153 13.696C99.2571 13.696 98.5451 13.952 98.0171 14.464C97.5051 14.96 97.2491 15.696 97.2491 16.672V20.128C97.2491 21.104 97.5051 21.848 98.0171 22.36C98.5451 22.856 99.2571 23.104 100.153 23.104ZM116.512 25C115.312 25 114.352 24.648 113.632 23.944C112.912 23.24 112.552 22.304 112.552 21.136V9.64H108.04V7.48H114.928V21.112C114.928 21.64 115.072 22.064 115.36 22.384C115.664 22.688 116.072 22.84 116.584 22.84H120.592V25H116.512ZM128.406 25.192C126.902 25.192 125.734 24.856 124.902 24.184C124.07 23.512 123.654 22.568 123.654 21.352H126.006C126.006 21.928 126.214 22.384 126.63 22.72C127.062 23.04 127.654 23.2 128.406 23.2H129.462C130.246 23.2 130.846 23.032 131.262 22.696C131.694 22.36 131.91 21.888 131.91 21.28C131.91 20.208 131.382 19.608 130.326 19.48L126.774 18.976C125.83 18.832 125.102 18.448 124.59 17.824C124.078 17.184 123.822 16.36 123.822 15.352C123.822 14.168 124.222 13.248 125.022 12.592C125.822 11.936 126.942 11.608 128.382 11.608H129.438C130.782 11.608 131.87 11.928 132.702 12.568C133.534 13.208 133.974 14.056 134.022 15.112H131.622C131.59 14.664 131.382 14.296 130.998 14.008C130.614 13.704 130.094 13.552 129.438 13.552H128.382C127.662 13.552 127.102 13.712 126.702 14.032C126.318 14.352 126.126 14.784 126.126 15.328C126.126 16.208 126.566 16.704 127.446 16.816L130.782 17.296C133.07 17.6 134.214 18.928 134.214 21.28C134.214 22.528 133.798 23.496 132.966 24.184C132.15 24.856 130.982 25.192 129.462 25.192H128.406ZM142.797 25.192C141.293 25.192 140.125 24.856 139.293 24.184C138.461 23.512 138.045 22.568 138.045 21.352H140.397C140.397 21.928 140.605 22.384 141.021 22.72C141.453 23.04 142.045 23.2 142.797 23.2H143.853C144.637 23.2 145.237 23.032 145.653 22.696C146.085 22.36 146.301 21.888 146.301 21.28C146.301 20.208 145.773 19.608 144.717 19.48L141.165 18.976C140.221 18.832 139.493 18.448 138.981 17.824C138.469 17.184 138.213 16.36 138.213 15.352C138.213 14.168 138.613 13.248 139.413 12.592C140.213 11.936 141.333 11.608 142.773 11.608H143.829C145.173 11.608 146.261 11.928 147.093 12.568C147.925 13.208 148.365 14.056 148.413 15.112H146.013C145.981 14.664 145.773 14.296 145.389 14.008C145.005 13.704 144.485 13.552 143.829 13.552H142.773C142.053 13.552 141.493 13.712 141.093 14.032C140.709 14.352 140.517 14.784 140.517 15.328C140.517 16.208 140.957 16.704 141.837 16.816L145.173 17.296C147.461 17.6 148.605 18.928 148.605 21.28C148.605 22.528 148.189 23.496 147.357 24.184C146.541 24.856 145.373 25.192 143.853 25.192H142.797Z" fill="#E3E3E3"/>
<path fill-rule="evenodd" clip-rule="evenodd" d="M66 16.2756L66.1838 16.0918L66 15.908V16.2756ZM12.092 4L2.82843 13.2635L0 16.092L2.82843 18.9204L11.9082 28.0002H17.5651L5.65685 16.092L17.7488 4H12.092Z" fill="url(#paint0_linear_769_48)"/>
<path fill-rule="evenodd" clip-rule="evenodd" d="M166.435 4L178.527 16.0918L166.619 28.0002H172.275L181.355 18.9202L184.184 16.0918L181.355 13.2634L172.092 4H166.435ZM151.027 28L160.757 4H165.073L155.344 28H151.027Z" fill="url(#paint1_linear_769_48)"/>
<defs>
<linearGradient id="paint0_linear_769_48" x1="33.0919" y1="4" x2="33.0919" y2="28.0002" gradientUnits="userSpaceOnUse">
<stop stop-color="#6C63FF"/>
<stop offset="1" stop-color="#D83F87"/>
</linearGradient>
<linearGradient id="paint1_linear_769_48" x1="167.606" y1="4" x2="167.606" y2="28.0002" gradientUnits="userSpaceOnUse">
<stop stop-color="#6C63FF"/>
<stop offset="1" stop-color="#D83F87"/>
</linearGradient>
</defs>
</svg>
